<svg width="224" height="40" viewBox="0 0 224 40" fill="none" xmlns="http://www.w3.org/2000/svg">
<path d="M38.0735 19.1354C38.0735 29.6155 29.522 38.1056 18.9977 38.1056C8.51679 38.097 0 29.5373 0 19.0311C0 8.49887 8.58632 -0.0260103 19.1454 5.96343e-05C29.6089 0.0261296 38.0735 8.57708 38.0735 19.1354ZM19.0585 31.2492C25.7502 31.2406 31.2601 25.705 31.234 19.0137C31.2079 12.3138 25.6546 6.79563 18.989 6.84777C12.3407 6.89991 6.86558 12.4007 6.85689 19.0398C6.8482 25.7224 12.3841 31.2666 19.0585 31.2492Z" fill="black"/>
<path d="M160.838 5.14447H165.652V14.1473C166.947 12.7308 168.32 11.7923 170.033 11.4447C175.282 10.3585 179.948 13.7128 180.635 19.1093C181.069 22.5418 180.635 25.7919 178.184 28.4597C174.926 32.0139 169.547 32.1182 166.104 28.7465C166.009 28.6596 165.913 28.5727 165.678 28.3641V30.7799H160.838V5.14447ZM175.76 20.7169C175.708 19.0311 175.021 17.2757 173.135 16.2242C171.45 15.2857 169.738 15.3291 168.094 16.3459C165.513 17.9361 164.818 22.0552 166.66 24.6882C168.294 27.0259 171.415 27.5646 173.622 25.8527C175.169 24.6535 175.777 23.0111 175.769 20.7169H175.76Z" fill="black"/>
<path d="M156.414 30.7799H151.338C150.921 29.6068 150.461 28.3815 150.078 27.1388C149.878 26.4871 149.618 26.209 148.862 26.2177C146.229 26.2785 143.587 26.2611 140.945 26.2177C140.311 26.209 140.024 26.4262 139.842 27.0172C139.529 28.0426 139.112 29.0419 138.816 30.076C138.65 30.6409 138.407 30.8581 137.807 30.8408C136.391 30.7973 134.965 30.8234 133.453 30.8234C133.549 30.4845 133.601 30.2238 133.688 29.9804C136.365 22.5071 139.051 15.0337 141.701 7.5516C141.971 6.78688 142.301 6.43928 143.17 6.50011C144.482 6.58701 145.812 6.48273 147.124 6.55225C147.437 6.56963 147.914 6.8564 148.01 7.13448C150.843 14.9207 153.634 22.7243 156.423 30.5192C156.44 30.5801 156.414 30.6496 156.406 30.7712L156.414 30.7799ZM148.401 22.2464C147.263 18.9615 146.15 15.7376 144.951 12.2703C143.752 15.7463 142.64 18.9615 141.51 22.2464H148.401Z" fill="black"/>
<path d="M111.43 22.6809H97.5253C97.4036 24.4971 98.5247 26.1482 100.262 26.7999C102.106 27.4864 104.243 26.9998 105.251 25.5486C105.686 24.9142 106.147 24.7317 106.868 24.7665C108.215 24.8186 109.57 24.7838 111.056 24.7838C110.413 27.0172 109.119 28.6422 107.241 29.8067C100.862 33.7693 92.7541 29.4851 92.4065 21.9857C92.2588 18.7704 92.9541 15.8245 95.4395 13.5738C98.29 10.9928 103.175 10.4627 106.772 12.2876C110.022 13.9387 111.873 17.519 111.534 21.5164C111.508 21.864 111.474 22.2029 111.43 22.6809ZM106.399 19.3178C106.416 16.9542 104.426 15.2249 101.809 15.2944C99.3937 15.3552 97.4558 17.1888 97.5948 19.3178H106.407H106.399Z" fill="black"/>
<path d="M214.789 22.6982H200.866C200.832 24.6274 201.979 26.2438 203.76 26.8434C205.646 27.4777 207.679 26.9476 208.705 25.4443C209.07 24.9055 209.452 24.7491 210.06 24.7665C211.416 24.8099 212.764 24.7838 214.119 24.7925C214.189 24.7925 214.259 24.8186 214.424 24.8534C213.546 27.6168 211.773 29.5286 209.096 30.554C204.759 32.2225 199.693 30.6843 197.346 27.0606C194.8 23.1327 195.304 17.0845 198.442 13.904C201.127 11.1753 205.976 10.4193 209.782 12.1225C213.181 13.6433 215.223 17.3018 214.919 21.3426C214.884 21.751 214.841 22.1682 214.78 22.6982H214.789ZM209.808 19.3178C209.6 16.7456 207.601 15.1293 204.977 15.2944C202.656 15.4421 200.858 17.2322 200.944 19.3178H209.808Z" fill="black"/>
<path d="M53.2988 6.57831H67.2115V10.4801H58.1913V16.5457H66.1861V20.4128H58.2V26.8173H67.2202V30.7712H53.3075V6.57831H53.2988Z" fill="black"/>
<path d="M80.1794 24.8881C81.5612 21.2123 82.8387 17.8058 84.1248 14.408C84.4812 13.4695 84.6376 12.2094 85.3241 11.7315C86.0108 11.2535 87.2535 11.5664 88.2529 11.5403C88.9047 11.5229 89.5652 11.5403 90.3647 11.5403C90.1996 12.0009 90.0954 12.3485 89.9563 12.6787C86.2801 21.4382 82.5866 30.189 78.9453 38.9659C78.6064 39.7828 78.1805 40.0435 77.3376 40C76.034 39.9305 74.7217 39.9826 73.253 39.9826C73.6353 39.0962 73.9569 38.3402 74.2784 37.5842C74.8781 36.1851 75.3387 34.6904 76.1209 33.4043C77.4071 31.2839 77.1724 29.3982 76.1817 27.1997C74.0264 22.4289 72.1579 17.5364 70.1678 12.6961C70.0374 12.3832 69.9157 12.0617 69.7158 11.5577C71.4974 11.5577 73.1834 11.5229 74.8607 11.6011C75.1127 11.6098 75.4256 12.1312 75.5559 12.4788C76.9812 16.2763 78.3717 20.0826 79.7795 23.8888C79.8751 24.1408 79.9795 24.3928 80.1707 24.8968L80.1794 24.8881Z" fill="black"/>
<path d="M190.621 30.806H185.85V5.15317H190.621V30.806Z" fill="black"/>
<path d="M131.543 16.4241V20.4302H116.925V16.4241H131.543Z" fill="black"/>
<path d="M219.853 12.7221C217.429 12.7134 215.778 11.0189 215.787 8.54225C215.787 6.10036 217.507 4.36236 219.888 4.37974C222.243 4.39712 223.981 6.16988 223.999 8.5857C224.007 10.9668 222.234 12.7308 219.853 12.7221ZM223.208 8.59439C223.208 6.52617 221.896 5.1097 219.914 5.06625C217.942 5.0228 216.49 6.52617 216.499 8.59439C216.508 10.6279 217.881 12.0443 219.871 12.053C221.861 12.053 223.199 10.6713 223.208 8.59439Z" fill="black"/>
<path d="M20.9616 13.2609C19.858 14.9468 19.8319 16.2329 20.8226 17.3105C21.8133 18.388 23.0125 18.4402 24.8808 17.5103C25.7585 19.6915 24.6897 22.6635 22.5172 24.1408C20.1187 25.7571 16.9556 25.5138 14.8439 23.5412C12.7322 21.5685 12.2717 18.4141 13.7316 15.9201C15.2002 13.4173 18.1113 12.3224 20.9616 13.2522V13.2609Z" fill="black"/>
<path d="M218.299 6.3437C219.038 6.3437 219.681 6.23073 220.254 6.37846C220.75 6.50881 221.341 6.84771 221.593 7.26483C221.94 7.86444 221.627 8.46405 221.002 8.83772C220.898 8.89855 220.793 8.96807 220.672 9.05497C221.037 9.59375 221.358 10.0804 221.697 10.5844C220.837 10.8451 220.845 10.8451 220.393 10.176C220.115 9.76755 219.811 9.38519 219.516 8.98545C219.403 9.01152 219.299 9.03759 219.186 9.07235C219.186 9.4634 219.229 9.85445 219.168 10.2368C219.133 10.4454 218.908 10.6192 218.777 10.8103C218.621 10.6365 218.334 10.4714 218.334 10.2976C218.299 9.02021 218.317 7.75147 218.317 6.35239L218.299 6.3437ZM219.533 6.88247C219.446 6.96068 219.368 7.04758 219.281 7.12579V8.52488C219.881 8.20335 220.333 7.96872 220.776 7.73409C220.359 7.45601 219.95 7.16924 219.533 6.89116V6.88247Z" fill="black"/>
<path d="M219.525 6.88247C219.942 7.16055 220.35 7.44732 220.767 7.7254C220.324 7.96003 219.872 8.20335 219.273 8.51619V7.1171C219.36 7.03889 219.438 6.95199 219.525 6.87378V6.88247Z" fill="white"/>
</svg>
