<svg width="126" height="105" viewBox="0 0 126 105" fill="none" xmlns="http://www.w3.org/2000/svg">
<path d="M84.9602 20.028H17.0111L23.4688 29.8037L27.3735 35.7127H78.2431L69.8604 55.3185H19.1956V105H0V0.0410156H93.4931L84.9602 20.028Z" fill="#3799A6"/>
<path d="M126 0H101.193V105H126V0Z" fill="#6BC0BC"/>
<path d="M101.193 0L68.4407 82.9571L60.9044 60.9686H42.3096L58.1193 105H78.2433L111.719 23.9626L101.193 0Z" fill="#6BC0BC"/>
<path d="M27.4692 35.7124H78.2433L69.8606 55.3182H40.7396L27.4692 35.7124Z" fill="#33899A"/>
<path d="M84.9603 20.028H17.0112L23.4689 29.8037L3.15381 0.0410156H93.4932L84.9603 20.028Z" fill="#33899A"/>
<path d="M111.72 23.9624L101.193 105V49.4363L111.72 23.9624Z" fill="#33899A"/>
</svg>
