<svg width="84" height="84" viewBox="0 0 84 84" fill="none" xmlns="http://www.w3.org/2000/svg">
<path d="M24.5 0.333252H59.5C72.8333 0.333252 83.6667 11.1666 83.6667 24.4999V59.4999C83.6667 65.9093 81.1205 72.0562 76.5884 76.5883C72.0563 81.1205 65.9094 83.6666 59.5 83.6666H24.5C11.1666 83.6666 0.333313 72.8333 0.333313 59.4999V24.4999C0.333313 18.0905 2.87944 11.9436 7.41157 7.41151C11.9437 2.87938 18.0906 0.333252 24.5 0.333252ZM23.6666 8.66659C19.6884 8.66659 15.8731 10.2469 13.06 13.06C10.247 15.873 8.66665 19.6883 8.66665 23.6666V60.3333C8.66665 68.6249 15.375 75.3333 23.6666 75.3333H60.3333C64.3116 75.3333 68.1269 73.7529 70.9399 70.9399C73.753 68.1268 75.3333 64.3115 75.3333 60.3333V23.6666C75.3333 15.3749 68.625 8.66659 60.3333 8.66659H23.6666ZM63.875 14.9166C65.2563 14.9166 66.5811 15.4653 67.5578 16.4421C68.5346 17.4188 69.0833 18.7436 69.0833 20.1249C69.0833 21.5063 68.5346 22.831 67.5578 23.8078C66.5811 24.7845 65.2563 25.3333 63.875 25.3333C62.4936 25.3333 61.1689 24.7845 60.1921 23.8078C59.2154 22.831 58.6667 21.5063 58.6667 20.1249C58.6667 18.7436 59.2154 17.4188 60.1921 16.4421C61.1689 15.4653 62.4936 14.9166 63.875 14.9166ZM42 21.1666C47.5253 21.1666 52.8244 23.3615 56.7314 27.2685C60.6384 31.1755 62.8333 36.4746 62.8333 41.9999C62.8333 47.5253 60.6384 52.8243 56.7314 56.7313C52.8244 60.6383 47.5253 62.8333 42 62.8333C36.4746 62.8333 31.1756 60.6383 27.2686 56.7313C23.3616 52.8243 21.1666 47.5253 21.1666 41.9999C21.1666 36.4746 23.3616 31.1755 27.2686 27.2685C31.1756 23.3615 36.4746 21.1666 42 21.1666ZM42 29.4999C38.6848 29.4999 35.5054 30.8169 33.1611 33.1611C30.8169 35.5053 29.5 38.6847 29.5 41.9999C29.5 45.3151 30.8169 48.4946 33.1611 50.8388C35.5054 53.183 38.6848 54.4999 42 54.4999C45.3152 54.4999 48.4946 53.183 50.8388 50.8388C53.183 48.4946 54.5 45.3151 54.5 41.9999C54.5 38.6847 53.183 35.5053 50.8388 33.1611C48.4946 30.8169 45.3152 29.4999 42 29.4999Z" fill="#6BC0BC"/>
</svg>
