<svg width="100" height="143" viewBox="0 0 100 143" fill="none" xmlns="http://www.w3.org/2000/svg">
<path d="M50 67.8571C45.264 67.8571 40.722 65.9758 37.3731 62.6269C34.0242 59.278 32.1429 54.736 32.1429 50C32.1429 45.264 34.0242 40.722 37.3731 37.3731C40.722 34.0242 45.264 32.1429 50 32.1429C54.736 32.1429 59.278 34.0242 62.6269 37.3731C65.9758 40.722 67.8571 45.264 67.8571 50C67.8571 52.345 67.3953 54.6671 66.4978 56.8336C65.6004 59.0002 64.2851 60.9687 62.6269 62.6269C60.9687 64.2851 59.0002 65.6004 56.8336 66.4979C54.6671 67.3953 52.345 67.8571 50 67.8571ZM50 0C36.7392 0 24.0215 5.26784 14.6447 14.6447C5.26784 24.0215 0 36.7392 0 50C0 87.5 50 142.857 50 142.857C50 142.857 100 87.5 100 50C100 36.7392 94.7322 24.0215 85.3553 14.6447C75.9785 5.26784 63.2608 0 50 0Z" fill="#B3B3B3"/>
</svg>
