<svg width="91" height="91" viewBox="0 0 91 91" fill="none" xmlns="http://www.w3.org/2000/svg">
<path d="M86.6667 66.5001V79.0001C86.6714 80.1605 86.4337 81.3091 85.9688 82.3724C85.504 83.4356 84.8221 84.39 83.967 85.1745C83.1119 85.959 82.1024 86.5563 81.0032 86.928C79.9039 87.2998 78.7391 87.4379 77.5834 87.3334C64.7622 85.9387 52.4466 81.5576 41.625 74.5417C31.5577 68.1445 23.0223 59.6091 16.625 49.5417C9.5847 38.6711 5.20259 26.2955 3.83338 13.4167C3.72926 12.2645 3.86619 11.1032 4.23547 10.0068C4.60474 8.91045 5.19826 7.90295 5.97824 7.0485C6.75822 6.19405 7.70757 5.51137 8.76584 5.04392C9.82412 4.57647 10.9681 4.3345 12.125 4.33341H24.625C26.6472 4.31351 28.6075 5.02957 30.1407 6.34813C31.6739 7.66669 32.6754 9.49777 32.9584 11.5001C33.4846 15.5006 34.4631 19.4285 35.875 23.2084C36.4356 24.6998 36.557 26.3206 36.2247 27.8787C35.8923 29.4369 35.1203 30.8672 34 32.0001L28.7084 37.2917C34.6399 47.7232 43.2769 56.3603 53.7084 62.2917L59 57.0001C60.1329 55.8798 61.5632 55.1078 63.1214 54.7755C64.6796 54.4432 66.3004 54.5645 67.7917 55.1251C71.5716 56.5371 75.4995 57.5156 79.5 58.0417C81.5241 58.3273 83.3726 59.3468 84.6939 60.9063C86.0153 62.4658 86.7174 64.4566 86.6667 66.5001Z" stroke="#6BC0BC" stroke-width="7" stroke-linecap="round" stroke-linejoin="round"/>
</svg>
