<svg width="432" height="114" viewBox="0 0 432 114" fill="none" xmlns="http://www.w3.org/2000/svg">
<path d="M17.056 89.9723C16.8428 89.9723 16.6296 89.8657 16.3631 89.7591C15.6702 89.3327 15.6702 88.853 15.7235 88.0535C15.9367 85.2286 16.7362 82.6702 17.6423 79.8453C19.4012 74.6219 21.2134 69.2386 23.1855 63.9086C23.7185 62.3096 23.8251 60.6573 23.452 58.8984L23.3987 58.6852H17.3758C15.5636 58.6852 13.7514 58.6852 11.9925 58.6852C11.8326 58.6852 11.6727 58.6852 11.5128 58.6852C11.3529 58.7385 11.193 58.7385 11.0331 58.7385C10.7666 58.7385 10.5534 58.6852 10.4468 58.5786C10.2869 58.472 10.1803 58.3121 10.127 58.0989C9.9671 57.5126 10.5001 57.4593 11.2996 57.4593H11.5128C12.7387 57.406 13.9646 57.2461 15.1905 57.1395C16.5763 56.9796 17.9621 56.8197 19.4545 56.8197C19.9875 56.8197 20.5205 56.873 21.1068 56.9263C21.2667 56.9263 21.3733 56.9263 21.5332 56.9263C22.919 56.9263 23.3987 56.1268 23.0256 54.5278C20.4139 42.9084 14.8174 35.2865 5.4366 30.5428L5.0102 30.3296C3.9442 29.7966 2.9315 29.3169 2.8782 28.1443C2.8249 27.025 3.731 26.8651 4.7437 26.6519L5.1168 26.5986C10.9265 25.426 17.3758 24.4133 25.3708 23.5072C29.848 22.9742 34.4318 22.4945 38.9623 22.0681C40.6146 21.9082 41.4141 21.1087 41.574 19.5097C41.6806 17.9107 42.4801 16.2584 43.4928 16.2584C43.6527 16.2584 43.8126 16.2584 44.0258 16.365C44.3456 16.5782 44.5588 16.7381 44.6654 16.9513C44.8786 17.4843 44.5588 18.1772 44.239 18.8168C44.0258 19.2432 43.7593 19.7229 43.706 20.2026C43.6527 20.4158 43.5994 20.5757 43.4928 20.8422C43.4395 21.0554 43.0664 22.0681 43.0664 22.0681L43.4928 21.9615C46.7441 21.3752 49.9421 21.2686 52.6071 21.2686C53.5132 21.2686 54.4726 21.3219 55.3787 21.3219H57.4041C61.5082 21.3219 65.6656 21.9082 69.823 22.9742C70.4626 23.1341 71.2621 23.3473 72.0083 23.7204C73.4474 24.4666 73.5007 24.9996 73.3941 25.3727C73.2875 25.8524 73.1276 25.8524 73.0743 25.8524C72.8611 25.8524 72.5413 25.6392 72.2215 25.426C72.0083 25.3194 71.7951 25.1595 71.6352 25.1062C68.0108 23.4539 64.3864 23.1341 60.9219 22.8143L59.5894 22.7077C58.0437 22.5478 56.4447 22.4945 54.6858 22.4945C51.6477 22.4945 48.5563 22.7077 45.6248 22.9209L43.3862 23.0808C42.5334 23.1341 42.2136 23.6138 41.9471 24.0935C37.8963 32.888 34.2186 41.7358 30.3277 51.1166L28.1957 56.34L28.5688 56.5532C28.6221 56.5532 28.6754 56.5532 28.7287 56.5532C29.0485 56.5532 29.315 56.6065 29.5282 56.6598C29.6348 56.6598 29.7414 56.7131 29.7947 56.7131C30.5942 56.8197 31.3404 56.8197 32.0866 56.8197L33.0993 56.873L34.0054 56.9263C37.1501 57.0329 40.4014 57.1928 43.6527 57.4593C44.4522 57.5659 45.1451 57.7791 45.305 57.939C45.305 58.0989 45.2517 58.2055 44.772 58.2055C44.5588 58.2055 44.3456 58.1522 44.239 58.1522C42.8532 58.0989 41.7339 58.0989 40.6146 58.0989C39.5486 58.0989 38.5359 58.0989 37.5232 58.0989C36.4572 58.0989 35.4445 58.1522 34.4318 58.1522C26.9165 58.1522 25.4241 59.538 24.8378 66.8401C24.1449 75.2082 22.2261 82.0839 19.0814 87.8936C18.8149 88.3733 18.4418 88.853 18.122 89.2794L18.0154 89.4393C17.7489 89.7591 17.4291 89.9723 17.056 89.9723ZM21.6398 74.3021L18.0154 85.1753L18.3885 85.3885C20.6271 82.2438 21.853 78.5661 22.0662 74.462L21.6398 74.3021ZM39.975 23.4539L39.5486 23.5072C28.9419 24.3067 18.3885 25.7991 5.1701 28.3575L4.6904 28.4641L5.2234 28.7306C11.5128 32.1418 15.8834 36.0327 18.9215 41.0429C21.7464 45.5734 23.6652 50.6902 24.7845 56.6598L24.9444 57.3527L25.2109 56.7664C27.0231 52.7156 28.7287 48.6648 30.4876 44.5607C33.3658 37.7916 36.3506 30.756 39.7618 23.827L39.975 23.4539ZM71.5419 58.7385C71.8084 58.7918 71.915 58.8984 71.915 58.9517C71.9683 59.005 71.915 59.1649 71.7018 59.2715C71.1155 59.6446 70.3693 59.8045 69.5698 59.8045C67.5444 59.8045 65.2525 58.6852 63.7068 56.9263C62.4276 55.4339 61.8413 54.7943 61.0951 54.7943C60.5088 54.7943 59.9758 55.1674 59.0164 55.8603C55.6585 58.2588 52.727 61.2436 49.9021 64.1751L48.6229 65.5076C48.5163 65.6142 48.4097 65.7208 48.3031 65.8274C48.0899 66.1472 47.8767 66.467 47.5036 66.467C47.2904 66.467 47.0239 66.3604 46.7574 66.1472C45.9579 65.5609 46.1711 64.9213 46.3843 64.335L46.4376 64.1218C47.8767 59.5913 49.5823 55.7004 51.7143 52.2359L51.7676 52.076C52.0341 51.7029 52.3539 51.1699 52.7803 51.1699C52.9402 51.1699 53.1001 51.2232 53.26 51.3298C53.5265 51.4897 53.6864 51.6496 53.793 51.8628C53.9529 52.2359 53.6864 52.609 53.5265 52.9821C53.4732 53.0887 53.3666 53.2486 53.3133 53.3552L52.9402 54.3679C52.4605 55.4872 52.0341 56.6065 51.5544 57.6725C51.2346 58.3654 50.9148 59.0583 50.5417 59.7512C50.5417 59.7512 49.7955 61.4035 50.062 61.7233L50.1153 61.8299H50.2752C50.9681 61.67 51.3945 61.1903 51.8209 60.7639C52.0341 60.5507 52.194 60.3908 52.3539 60.2309L54.5925 58.3654C56.0316 57.1395 57.4174 55.9669 58.9098 54.8476C59.9225 54.1014 60.5621 53.7816 61.0951 53.7816C61.9479 53.7816 62.8007 54.5811 64.1332 56.2334C65.6256 58.0456 67.7043 59.1649 69.6764 59.1649C69.9962 59.1649 70.316 59.1116 70.6358 59.0583C70.7424 59.005 70.9023 58.9517 71.0089 58.8984C71.2221 58.8451 71.382 58.7385 71.5419 58.7385ZM98.2373 56.6065C98.3972 56.6598 98.5038 56.6598 98.5571 56.7664C98.6104 56.9263 98.5038 57.1928 98.2906 57.406C94.6662 61.2436 90.189 64.6548 84.9123 67.533L84.5925 67.7462C84.1661 67.9594 83.7397 68.2259 83.26 68.2259C82.8869 68.2259 82.5138 68.066 82.1407 67.7462C81.1813 66.9467 81.3945 66.2005 81.7143 65.401C81.7676 65.2411 81.8209 65.0812 81.8742 64.9213C82.5138 62.6294 83.5265 60.5507 84.5392 58.6852C84.5392 58.6852 85.8717 56.2334 86.1382 55.7004C86.1915 55.6471 86.2448 55.4872 86.3514 55.3273C86.991 54.4212 87.6306 53.3552 87.3641 52.7156C87.3108 52.5557 87.2042 52.4491 87.0443 52.3425C86.991 52.3425 86.8844 52.2892 86.7778 52.2892C86.0849 52.2892 85.0189 53.4618 85.0189 53.4618C84.4859 54.0481 83.8996 54.9009 83.8463 56.0202V56.1801C83.8463 56.4999 83.8463 56.9796 83.6331 56.9796C83.5265 56.9796 83.3133 56.9263 82.8336 56.4466L82.727 56.2867L82.3539 56.6598C82.194 56.873 81.9808 57.0329 81.8209 57.2461C81.0214 58.0989 80.2752 59.005 79.529 59.9111C77.8234 61.8832 76.1178 63.9086 74.0391 65.5609L73.6127 65.934C72.9731 66.467 72.2802 67.1066 71.4807 67.1066C71.1076 67.1066 70.7345 66.9467 70.3614 66.6802C68.8157 65.6142 69.2421 64.1218 69.5619 62.7893L69.6685 62.4162C70.5213 59.0583 72.0137 56.0735 74.199 53.6217C75.798 51.9161 77.5036 51.0633 79.6356 51.0633H79.8488C80.7549 51.1166 81.661 51.1166 82.0874 51.7029C82.7803 52.609 83.3666 53.0354 83.8996 53.0354C84.4859 53.0354 84.9123 52.6623 85.3387 52.2359L85.4986 52.076C85.8184 51.7562 86.1915 51.4897 86.6179 51.3298C86.9377 51.1699 87.2575 51.01 87.5773 51.01C87.8438 51.01 88.057 51.1166 88.2702 51.3298C88.9098 51.8095 88.7499 52.2892 88.4301 52.8755C87.2575 55.4339 86.0316 57.9923 84.8057 60.4974L83.8463 62.4695C83.4732 63.269 83.1534 64.1218 82.8869 64.9746L82.5671 65.7208C82.4605 66.0939 82.4605 66.3604 82.5671 66.5203C82.6204 66.6802 82.727 66.7335 82.8869 66.7868C82.9935 66.8401 83.1001 66.8401 83.2067 66.8401C83.9529 66.8401 85.0722 66.2538 85.392 66.0406C87.6839 64.4949 89.9225 62.8426 92.0012 61.3502C92.6941 60.8172 93.3337 60.2842 93.9733 59.7512C94.453 59.3781 94.8794 59.005 95.3591 58.6319C95.6256 58.472 95.8388 58.3121 96.052 58.0989C96.4784 57.7791 96.8515 57.406 97.3312 57.1395L97.4911 57.0329C97.7043 56.873 98.0241 56.6065 98.2373 56.6065ZM82.6204 54.5811C82.9935 54.208 82.9935 53.7283 82.6204 53.1953C82.194 52.6623 81.5544 52.2892 80.9681 52.2892C80.8615 52.2892 80.8082 52.2892 80.7016 52.3425C79.8488 52.5024 79.0493 52.7689 78.4097 53.142C75.265 55.0075 73.5061 58.0456 72.067 60.7639C71.9071 61.0304 71.7472 61.2969 71.5873 61.6167C71.2142 62.2563 70.7878 62.9492 70.5746 63.7487C70.5213 64.1218 70.4147 65.2944 70.8944 65.7741C71.0543 65.8807 71.2142 65.934 71.3741 65.934C71.534 65.934 71.6939 65.8807 71.8538 65.7741C74.9452 63.9086 77.2371 61.0837 79.4224 58.4187C80.4351 57.1395 81.5011 55.807 82.6204 54.5811ZM126.129 58.0989C126.343 58.2588 126.503 58.3654 126.503 58.5253C126.609 58.7918 126.343 59.005 126.129 59.2715C126.023 59.3781 125.916 59.4847 125.863 59.5913C122.931 64.1218 118.827 67.8528 113.337 70.9442C112.751 71.3173 112.112 71.4239 111.205 71.4772H111.099C110.193 71.4772 109.5 71.2107 109.02 70.7843C108.54 70.3046 108.327 69.6117 108.327 68.7056C108.327 67.0533 109.073 65.7741 109.82 64.5482L110.299 63.6954C110.566 63.269 110.832 62.8959 110.992 62.4162L111.099 62.2563C111.205 61.9898 111.419 61.5634 110.939 61.0837C110.672 60.7639 110.353 60.6573 109.926 60.6573C109.82 60.6573 109.66 60.6573 109.447 60.7106C108.061 61.0304 106.675 61.4035 105.289 61.8832C103.477 62.5228 101.825 63.4289 100.279 64.2817C99.586 64.7081 98.8931 65.0812 98.1469 65.4543L97.987 65.5609C97.6672 65.7208 97.2941 65.934 96.921 65.934C96.6012 65.934 96.2814 65.7741 95.9083 65.4543C95.1621 64.8147 95.322 64.2284 95.4819 63.5888L95.5352 63.3756C96.1215 60.4441 97.2408 57.8324 98.7332 55.5405L98.8398 55.3806C98.9997 55.1141 99.2129 54.8476 99.4794 54.8476C99.586 54.8476 99.6926 54.8476 99.8525 54.9009C100.066 55.0608 100.226 55.1674 100.332 55.3806C100.652 56.0735 100.119 57.1928 99.8525 57.8324C99.7459 57.9923 99.6926 58.1522 99.6393 58.2588L97.7738 63.1091C97.7205 63.2157 97.5606 63.5888 97.8804 63.8553C97.987 63.9619 98.1469 64.0152 98.3601 64.0152C98.8398 64.0152 99.4794 63.7487 99.7459 63.6421C100.066 63.4822 100.332 63.269 100.599 63.0558C100.972 62.8426 101.292 62.6294 101.665 62.4162C102.784 61.8832 103.957 61.4035 105.183 60.9238C106.622 60.2842 107.954 59.9111 109.287 59.7512C109.447 59.6979 109.66 59.6979 109.82 59.6979C110.779 59.6979 111.525 60.0177 112.058 60.604C112.591 61.2436 112.804 62.0964 112.538 63.0558C112.218 64.2817 111.738 65.4543 111.259 66.5736C110.992 67.1599 110.726 67.7995 110.513 68.4391L110.406 68.6523C110.246 69.0254 110.033 69.5584 110.513 70.0381C110.779 70.3046 111.099 70.4645 111.472 70.4645C111.738 70.4645 112.058 70.3579 112.325 70.2513C115.629 69.2386 118.028 67.1066 120 65.1345C121.652 63.4822 123.731 61.4568 125.063 58.9517L125.117 58.7918C125.277 58.472 125.543 57.9923 125.863 57.9923C125.97 57.9923 126.023 57.9923 126.129 58.0989ZM146.506 59.1116C146.612 59.2715 146.506 59.7512 146.133 60.071C141.709 63.5888 136.432 67.533 129.556 68.9721C128.917 69.132 128.331 69.1853 127.798 69.1853C126.358 69.1853 125.133 68.7056 124.067 67.7462C122.521 66.3071 122.148 64.5482 122.894 62.5228C124.973 57.1395 128.97 52.9288 134.727 50.1039C135.419 49.7841 136.112 49.6242 136.752 49.6242C137.818 49.6242 138.777 50.0506 139.577 50.9567C141.176 52.8222 140.27 54.7943 139.577 55.8603C138.937 56.7131 138.138 57.406 137.551 57.8857L137.445 57.9923C137.232 58.1522 136.859 58.472 136.539 58.472C136.379 58.4187 136.326 58.3654 136.272 58.3121C135.899 57.7791 137.232 56.0202 137.925 55.2207C138.298 54.6877 138.511 54.4212 138.564 54.2613C138.617 54.1547 138.671 54.0481 138.724 53.8882C138.884 53.4085 139.15 52.7689 138.404 52.1293C138.084 51.8095 137.711 51.7029 137.285 51.7029C136.912 51.7029 136.539 51.8095 136.112 52.0227C131.049 54.741 127.265 58.7385 124.919 63.9619C124.333 65.2411 124.546 66.3071 125.399 67.1066C126.092 67.6929 126.945 68.0127 128.064 68.0127C128.331 68.0127 128.597 67.9594 128.917 67.9594C132.808 67.4797 136.059 65.7741 138.404 64.3883C139.577 63.6954 140.803 62.8426 142.348 61.7233C142.722 61.4568 143.095 61.137 143.468 60.8172C144.214 60.2309 145.013 59.5913 145.866 59.1649C146.079 59.0583 146.239 59.005 146.293 59.005C146.453 59.005 146.453 59.1116 146.506 59.1116ZM163.553 59.1649C163.82 59.005 164.139 58.8984 164.406 58.8984C164.513 59.2715 164.033 59.6446 163.766 59.8578L163.393 60.1243C159.662 63.0558 155.771 66.0939 150.281 66.0939H150.015C148.256 66.0406 146.817 65.4543 145.858 64.4416C144.951 63.4289 144.632 62.0964 144.951 60.6573C145.911 55.8603 149.109 52.6623 154.386 51.2765C154.705 51.1699 154.972 51.1699 155.238 51.1699C156.091 51.1699 156.837 51.543 157.37 52.2892C158.17 53.4085 157.69 54.1547 157.051 54.9542C155.558 56.7664 153.32 57.8324 150.015 58.3121C147.616 58.6852 147.243 60.4441 146.924 62.0964L146.817 62.4695C146.71 62.9492 146.817 63.4289 147.137 63.8553C147.51 64.3883 148.096 64.8147 148.949 65.0279C149.642 65.2411 150.281 65.2944 150.974 65.2944C152.147 65.2944 153.16 65.0812 154.386 64.7081C156.251 64.1751 158.117 63.3223 159.982 62.0431C160.835 61.4568 161.634 60.8705 162.487 60.1243C162.647 60.0177 162.754 59.8578 162.914 59.7512C163.127 59.538 163.34 59.3248 163.553 59.1649ZM150.601 56.4466L150.281 56.8197L150.814 56.7131C153.32 56.1268 154.972 55.3806 156.251 53.3019L156.518 52.8755L156.038 53.0354C153.906 53.675 152.2 54.5278 150.601 56.4466ZM181.612 57.6192L181.719 57.8324C181.772 58.0989 180.866 58.2055 180.44 58.2588C180.28 58.3121 180.12 58.3121 180.013 58.3654C179.054 58.5786 178.041 58.8451 177.082 59.1649C175.163 59.7512 173.617 60.3908 172.231 61.0304C170.099 62.0964 168.127 63.269 167.594 66.2005C167.115 68.8655 165.569 71.3173 162.904 73.6092C161.891 74.5153 160.772 74.995 159.706 74.995C159.013 74.995 158.32 74.7285 157.787 74.3021C156.401 73.0762 156.401 70.8909 157.84 69.0254C159.706 66.6802 162.371 65.0812 164.983 63.6954C166.635 62.8426 166.795 61.7233 165.462 59.8578C164.983 59.1649 164.556 58.472 164.183 57.7791L163.757 57.1395C162.957 55.8603 163.011 54.7943 163.81 53.9415C166.528 51.2232 169.993 49.6775 174.044 49.4643H174.31C175.27 49.4643 176.016 49.7308 176.495 50.2638C177.028 50.9034 177.188 51.7562 176.922 52.7156C176.655 53.8349 176.069 54.741 175.003 55.4872C174.79 55.6471 174.577 55.807 174.31 55.807C174.15 55.807 173.99 55.7537 173.83 55.6471C173.404 55.3273 173.511 54.9542 173.777 54.5278C174.15 53.7283 174.577 52.9821 174.95 52.2359C175.163 51.8628 175.376 51.4364 175.056 50.9034C174.843 50.5836 174.523 50.4237 174.15 50.4237C173.99 50.4237 173.884 50.4237 173.777 50.4237L173.617 50.477C170.206 50.7968 167.434 52.1293 165.356 54.3679C164.716 55.0608 164.769 55.9669 165.622 56.9263C166.102 57.4593 166.528 58.0989 166.901 58.7385C167.754 60.071 168.341 61.0837 169.407 61.0837C169.78 61.0837 170.153 60.9771 170.579 60.7639C173.297 59.4847 176.229 58.6319 178.681 57.8857C179.107 57.7791 180.173 57.4593 180.973 57.4593C181.399 57.4593 181.559 57.5659 181.612 57.6192ZM161.198 73.5559C164.077 72.0102 165.729 69.3452 166.422 65.1878L166.049 65.0812C165.995 65.3477 165.036 65.8274 164.556 66.0939C164.236 66.2005 164.023 66.3604 163.863 66.4137C163.011 67.0533 162.264 67.5863 161.625 68.2259L161.252 68.5457C160.079 69.5051 158.533 70.8909 158.373 72.33C158.373 72.8097 158.48 73.1828 158.693 73.4493C158.96 73.7158 159.333 73.8757 159.813 73.8757C160.399 73.8757 160.879 73.7158 161.198 73.5559ZM201.732 59.1116C201.838 59.2715 201.732 59.7512 201.359 60.071C196.935 63.5888 191.658 67.533 184.782 68.9721C184.143 69.132 183.556 69.1853 183.023 69.1853C181.584 69.1853 180.358 68.7056 179.292 67.7462C177.747 66.3071 177.374 64.5482 178.12 62.5228C180.199 57.1395 184.196 52.9288 189.952 50.1039C190.645 49.7841 191.338 49.6242 191.978 49.6242C193.044 49.6242 194.003 50.0506 194.803 50.9567C196.402 52.8222 195.496 54.7943 194.803 55.8603C194.163 56.7131 193.364 57.406 192.777 57.8857L192.671 57.9923C192.458 58.1522 192.084 58.472 191.765 58.472C191.605 58.4187 191.551 58.3654 191.498 58.3121C191.125 57.7791 192.458 56.0202 193.15 55.2207C193.524 54.6877 193.737 54.4212 193.79 54.2613C193.843 54.1547 193.897 54.0481 193.95 53.8882C194.11 53.4085 194.376 52.7689 193.63 52.1293C193.31 51.8095 192.937 51.7029 192.511 51.7029C192.138 51.7029 191.765 51.8095 191.338 52.0227C186.275 54.741 182.49 58.7385 180.145 63.9619C179.559 65.2411 179.772 66.3071 180.625 67.1066C181.318 67.6929 182.171 68.0127 183.29 68.0127C183.556 68.0127 183.823 67.9594 184.143 67.9594C188.034 67.4797 191.285 65.7741 193.63 64.3883C194.803 63.6954 196.029 62.8426 197.574 61.7233C197.947 61.4568 198.321 61.137 198.694 60.8172C199.44 60.2309 200.239 59.5913 201.092 59.1649C201.305 59.0583 201.465 59.005 201.519 59.005C201.678 59.005 201.678 59.1116 201.732 59.1116ZM219.738 58.3654C220.058 58.4187 220.165 58.5253 220.165 58.5253C220.271 59.1649 218.619 59.6979 218.086 59.8578C217.127 60.1243 216.221 60.2842 215.261 60.2842C214.462 60.2842 213.609 60.1776 212.756 59.9644C212.33 59.8578 211.957 59.8045 211.637 59.8045C210.784 59.8045 210.251 60.2309 209.771 61.1903C208.759 63.4289 207.106 65.2944 204.868 66.7335C204.335 67.1066 203.535 67.533 202.736 67.533C202.203 67.533 201.67 67.3731 201.19 67C199.751 66.0939 199.751 64.6548 199.804 63.269C200.071 59.6446 201.51 56.4466 204.121 53.7283C204.708 53.0887 205.347 52.4491 206.04 51.8628C206.573 51.3831 207.16 51.1166 207.799 51.1166C208.172 51.1166 208.599 51.2232 209.078 51.4364C210.091 51.9161 210.731 52.7156 211.104 54.1014C211.424 55.274 211.424 56.3933 211.157 57.4593C210.997 58.0456 211.05 58.472 211.317 58.7385C211.583 59.0583 212.063 59.2182 212.809 59.2715C213.289 59.2715 213.715 59.3248 214.142 59.3248C215.208 59.3248 216.114 59.2182 216.967 59.1116C217.393 59.0583 217.713 58.8984 218.086 58.7385C218.512 58.5253 218.939 58.3654 219.472 58.3654C219.525 58.3654 219.632 58.3654 219.738 58.3654ZM208.652 58.9517C208.652 58.8451 208.652 58.7385 208.705 58.5786C208.439 58.2588 208.226 58.0456 208.066 57.8857C207.586 57.406 207.053 56.873 206.52 56.4466C206.413 56.34 206.307 56.2334 206.147 56.0735C205.88 55.7537 205.561 55.3806 205.187 55.3806C204.974 55.3806 204.814 55.4872 204.654 55.7537C202.522 58.6319 201.137 61.2969 201.083 64.7081C201.083 65.2944 201.243 65.7741 201.51 66.0406C201.723 66.2538 201.989 66.3604 202.309 66.3604C202.576 66.3604 202.842 66.3071 203.109 66.1472C206.2 64.6015 207.639 61.7233 208.599 59.4314C208.652 59.2715 208.652 59.1116 208.652 58.9517ZM209.132 56.8197C209.345 55.8603 209.558 54.9009 208.545 53.9415C208.385 53.7816 208.172 53.7283 207.959 53.7283C207.426 53.7283 206.893 54.2613 206.786 54.5811C206.413 55.7004 207.213 56.34 208.012 56.9796C208.279 57.1928 208.492 57.3527 208.705 57.5659L208.918 57.7791L208.972 57.5126C209.025 57.2461 209.078 57.0329 209.132 56.8197ZM277.285 106.069C277.125 106.122 276.965 106.122 276.805 106.122C276.539 106.122 276.219 106.016 275.899 105.802C274.62 104.843 274.726 103.777 274.833 102.711L274.886 102.498C275.473 97.381 276.858 92.5307 278.191 87.8403L278.298 87.4139C281.922 74.8884 295.46 43.8145 300.044 32.0885L301.803 27.5047L302.283 26.3854C302.656 25.4793 302.975 24.6265 303.295 23.7204C303.615 22.6544 303.828 21.7483 303.935 20.7889C303.988 20.5224 304.095 19.8295 303.562 19.563C303.402 19.5097 303.295 19.4564 303.135 19.4564C302.549 19.4564 301.856 19.9894 301.376 20.3625C301.27 20.4691 301.163 20.5224 301.057 20.5757C299.724 21.4285 298.498 22.4412 297.326 23.4539L296.846 23.827C294.98 25.426 293.275 27.2382 291.623 28.9971L291.463 29.157C288.051 32.8347 274.993 46.9592 271.688 50.6902C269.396 53.3019 267.051 55.9669 264.706 58.5786C263.853 59.4847 262.841 60.2842 261.828 61.0837C261.455 61.4035 261.135 61.67 260.762 61.9898C260.335 62.3629 259.856 62.5228 259.429 62.5228C259.11 62.5228 258.79 62.4162 258.523 62.2563C257.724 61.7766 257.351 60.9771 257.511 59.7512C257.724 57.6192 258.097 55.5405 258.47 53.5151L258.63 52.5024C258.843 51.4897 259.056 50.477 259.216 49.4643C259.749 46.746 260.335 43.9211 260.442 41.0429C260.495 40.1901 260.442 39.4439 260.282 38.6977C260.176 38.2713 260.122 37.8449 259.909 37.4718C259.749 37.152 259.483 36.9921 259.163 36.9921C258.203 36.9921 256.658 38.6977 256.071 39.4439C251.274 45.4668 247.81 52.5557 244.505 59.3781C243.972 60.5507 241.787 64.9746 241.787 64.9746C240.881 66.7868 239.975 68.599 239.069 70.4112C239.015 70.5711 238.909 70.731 238.856 70.8909C238.696 71.3173 238.482 71.7437 238.163 72.0102C238.056 72.0635 237.949 72.1168 237.843 72.1168C237.63 72.1168 237.416 71.9569 237.257 71.6904C237.043 71.2107 237.257 70.731 237.47 70.3046C237.523 70.198 237.523 70.0381 237.576 69.9315C240.828 60.7106 245.092 50.0506 251.861 40.7764C253.46 38.6444 254.899 37.152 256.498 36.086C257.297 35.553 257.937 35.2865 258.63 35.2865C259.11 35.2865 259.536 35.3931 260.016 35.6596C261.455 36.4591 261.561 37.7916 261.561 39.2307C261.508 41.8957 261.188 44.4008 260.815 46.5861C260.442 48.8247 260.016 51.0633 259.536 53.3019C259.269 54.5278 259.056 55.7004 258.843 56.9263L258.79 57.1928C258.683 57.7258 258.577 58.3121 258.523 58.8984C258.47 59.8045 258.47 60.604 258.896 61.0304L259.003 61.0837L259.269 61.137C259.643 61.137 260.122 60.7639 260.549 60.3908L260.762 60.2309C261.721 59.538 262.681 58.6319 263.64 57.5659C264.813 56.34 265.879 55.0075 266.891 53.7283C267.478 52.9821 268.064 52.2359 268.65 51.4897C274.94 44.0277 290.29 27.0783 297.166 21.162C298.711 19.8828 300.204 18.6569 302.176 17.9107C302.602 17.6975 302.922 17.6442 303.295 17.6442C303.828 17.6442 304.308 17.8041 304.788 18.2305C305.587 18.8701 305.907 19.6696 305.854 20.7889C305.747 22.9209 305.161 24.7864 304.574 26.3321C302.922 30.8093 301.11 35.2865 299.351 39.6038C296.26 47.3323 284.267 74.2488 281.709 82.5103L281.016 84.8555C279.31 90.3454 277.551 95.9952 276.699 101.965C276.699 102.178 276.645 102.391 276.592 102.551C276.379 103.351 276.112 104.31 277.445 105.376C277.605 105.536 277.605 105.642 277.658 105.696C277.658 105.802 277.498 105.962 277.285 106.069ZM314.761 59.1649C315.027 59.005 315.347 58.8984 315.613 58.8984C315.72 59.2715 315.24 59.6446 314.974 59.8578L314.601 60.1243C310.87 63.0558 306.979 66.0939 301.489 66.0939H301.222C299.464 66.0406 298.024 65.4543 297.065 64.4416C296.159 63.4289 295.839 62.0964 296.159 60.6573C297.118 55.8603 300.316 52.6623 305.593 51.2765C305.913 51.1699 306.179 51.1699 306.446 51.1699C307.299 51.1699 308.045 51.543 308.578 52.2892C309.377 53.4085 308.898 54.1547 308.258 54.9542C306.766 56.7664 304.527 57.8324 301.222 58.3121C298.824 58.6852 298.451 60.4441 298.131 62.0964L298.024 62.4695C297.918 62.9492 298.024 63.4289 298.344 63.8553C298.717 64.3883 299.304 64.8147 300.156 65.0279C300.849 65.2411 301.489 65.2944 302.182 65.2944C303.354 65.2944 304.367 65.0812 305.593 64.7081C307.459 64.1751 309.324 63.3223 311.19 62.0431C312.042 61.4568 312.842 60.8705 313.695 60.1243C313.855 60.0177 313.961 59.8578 314.121 59.7512C314.334 59.538 314.547 59.3248 314.761 59.1649ZM301.809 56.4466L301.489 56.8197L302.022 56.7131C304.527 56.1268 306.179 55.3806 307.459 53.3019L307.725 52.8755L307.245 53.0354C305.113 53.675 303.408 54.5278 301.809 56.4466ZM337.99 58.7385C338.256 58.7918 338.363 58.8984 338.363 58.9517C338.416 59.005 338.363 59.1649 338.15 59.2715C337.563 59.6446 336.817 59.8045 336.018 59.8045C333.992 59.8045 331.7 58.6852 330.155 56.9263C328.876 55.4339 328.289 54.7943 327.543 54.7943C326.957 54.7943 326.424 55.1674 325.464 55.8603C322.106 58.2588 319.175 61.2436 316.35 64.1751L315.071 65.5076C314.964 65.6142 314.858 65.7208 314.751 65.8274C314.538 66.1472 314.325 66.467 313.952 66.467C313.738 66.467 313.472 66.3604 313.205 66.1472C312.406 65.5609 312.619 64.9213 312.832 64.335L312.886 64.1218C314.325 59.5913 316.03 55.7004 318.162 52.2359L318.216 52.076C318.482 51.7029 318.802 51.1699 319.228 51.1699C319.388 51.1699 319.548 51.2232 319.708 51.3298C319.974 51.4897 320.134 51.6496 320.241 51.8628C320.401 52.2359 320.134 52.609 319.974 52.9821C319.921 53.0887 319.815 53.2486 319.761 53.3552L319.388 54.3679C318.908 55.4872 318.482 56.6065 318.002 57.6725C317.683 58.3654 317.363 59.0583 316.99 59.7512C316.99 59.7512 316.243 61.4035 316.51 61.7233L316.563 61.8299H316.723C317.416 61.67 317.842 61.1903 318.269 60.7639C318.482 60.5507 318.642 60.3908 318.802 60.2309L321.04 58.3654C322.48 57.1395 323.865 55.9669 325.358 54.8476C326.37 54.1014 327.01 53.7816 327.543 53.7816C328.396 53.7816 329.249 54.5811 330.581 56.2334C332.074 58.0456 334.152 59.1649 336.124 59.1649C336.444 59.1649 336.764 59.1116 337.084 59.0583C337.19 59.005 337.35 58.9517 337.457 58.8984C337.67 58.8451 337.83 58.7385 337.99 58.7385ZM355.837 58.5786C355.944 58.6319 355.997 58.7918 355.997 59.005C355.997 59.538 355.145 59.9644 354.825 60.2309C353.599 61.2969 352.32 62.3096 350.987 63.269C348.322 65.1345 345.284 66.7335 341.873 67.5863C340.434 67.9594 338.888 68.2259 337.342 66.8401C335.743 65.4543 335.797 63.802 336.17 62.4695C337.502 57.6192 339.847 53.4085 343.099 49.8374C343.525 49.411 344.005 48.6648 344.911 49.411C345.87 50.1572 345.177 50.7435 344.911 51.2765C342.619 54.8476 340.38 58.4187 338.728 62.4162C338.302 63.4822 337.289 64.7081 338.515 65.934C339.794 67.2132 341.5 66.6802 342.779 66.3604C345.497 65.7208 347.842 64.3883 349.921 62.8426C350.614 62.3629 355.198 58.0456 355.837 58.5786ZM347.203 46.8526C346.457 46.9592 345.924 46.6394 345.657 45.7333C345.337 44.3475 346.03 43.8145 347.256 43.7612C348.109 43.6546 348.802 44.0277 349.122 45.147C349.175 46.3196 348.375 46.746 347.203 46.8526ZM382.332 57.4593C382.758 57.4593 382.865 57.5126 382.865 57.5659C382.971 57.9923 381.905 58.2588 381.479 58.4187C381.319 58.4187 381.212 58.472 381.159 58.472C378.547 59.4314 376.202 60.3908 374.283 62.0964C372.525 63.5888 371.139 65.6142 370.073 68.066C367.301 74.462 363.09 80.4849 357.281 86.4545C356.055 87.7337 354.616 89.0129 352.484 89.3327C352.217 89.386 351.897 89.386 351.631 89.386C350.725 89.386 350.032 89.1195 349.392 88.5332C348.433 87.5205 348.54 86.4545 348.753 85.4951C349.392 83.0966 350.991 81.3377 352.484 79.6321C358.773 72.6498 364.103 66.9467 370.872 62.3096C372.525 61.1903 372.898 59.2182 373.217 57.2994L373.377 56.4999C373.484 56.0202 373.377 55.6471 373.164 55.3806C373.004 55.1674 372.631 54.9542 371.992 54.9542C371.938 54.9542 371.832 54.9542 371.725 54.9542C369.38 55.1674 366.662 58.2588 366.715 60.5507C366.768 60.9771 366.715 61.2436 366.448 61.2969C366.395 61.2969 366.342 61.3502 366.288 61.3502C366.022 61.3502 365.969 61.1903 365.915 61.0837C365.702 60.604 365.382 59.9111 364.903 59.9111C364.583 59.9111 364.316 60.1776 364.156 60.4974C364.05 60.604 363.997 60.7106 363.943 60.7639C363.464 61.137 363.037 61.5101 362.557 61.8832C361.332 63.0025 360.052 64.1218 358.507 64.868C357.867 65.1878 357.281 65.5076 356.588 65.5076C356.055 65.5076 355.469 65.2944 354.936 64.8147C353.496 63.6954 353.816 62.4162 354.083 61.2969C354.829 57.8857 356.641 55.5405 359.466 54.3146C360.212 53.9948 360.905 53.8349 361.545 53.8349C362.931 53.8349 364.156 54.6344 365.542 56.3933C365.809 56.7664 366.129 57.0862 366.448 57.0862C366.662 57.0862 366.821 56.9796 367.035 56.873L367.195 56.7131C368.314 56.0202 369.433 55.2207 370.659 54.6344C371.192 54.4212 371.618 54.3146 372.045 54.3146C372.471 54.3146 372.898 54.4212 373.217 54.741C374.177 55.4339 374.177 56.4466 374.124 57.5126C374.07 57.9923 374.017 58.472 373.91 59.1116L373.75 60.1243L374.07 60.2842C374.124 60.071 375.19 59.7512 375.616 59.5913C375.882 59.4847 376.096 59.4314 376.149 59.3781C376.948 59.0583 377.641 58.7385 378.388 58.4187C379.24 58.0989 380.2 57.8324 381.426 57.5659C381.639 57.5126 382.012 57.4593 382.332 57.4593ZM363.997 59.3781C364.476 59.0583 365.009 58.6852 364.263 57.6725C363.73 56.9263 362.984 56.0735 361.598 56.0735H361.545C358.453 56.873 356.375 58.8984 355.469 62.0431C355.309 62.5761 355.042 63.4289 355.788 64.0685C356.055 64.2817 356.375 64.3883 356.641 64.3883C357.014 64.3883 357.387 64.2284 357.707 64.0685C359.733 63.1091 361.278 61.7766 362.771 60.4441C363.09 60.1776 363.41 59.8578 363.783 59.5913C363.837 59.4847 363.943 59.4314 363.997 59.3781ZM354.029 86.3479C360.905 80.5382 365.489 72.863 369.646 65.4543L369.38 65.1878C366.022 67.2665 363.304 69.8782 360.852 72.3833C359.946 73.3427 358.986 74.2488 358.027 75.2082C355.362 77.7133 352.697 80.2717 350.831 83.523L350.565 83.9494C349.925 84.9621 349.126 86.2413 350.405 87.3073C350.725 87.6271 351.151 87.787 351.524 87.787C352.377 87.787 353.177 87.0941 353.816 86.5611L354.029 86.3479ZM414.098 58.8984C414.631 59.8578 413.299 61.3502 412.553 62.1497C412.393 62.3629 412.233 62.5228 412.126 62.6827C408.555 67.2665 404.504 70.4112 400.134 71.9569C399.548 72.1701 398.801 72.3833 398.055 72.3833C397.202 72.3833 396.509 72.1168 395.817 71.5838C394.431 70.4112 394.377 68.9721 394.431 67.2665C394.484 63.9086 395.87 61.0837 397.256 58.3121L397.682 57.4593C397.842 57.0862 398.268 56.2334 397.735 55.807C397.575 55.6471 397.362 55.5938 397.149 55.5938C396.083 55.5938 394.431 56.9796 393.311 57.9923L393.152 58.1522C392.352 58.8451 391.606 59.6979 390.86 60.4441C390.433 60.9238 390.007 61.4035 389.58 61.8299L388.461 62.9492C387.075 64.335 385.743 65.7208 384.357 67.0533C383.931 67.4797 383.398 67.9061 382.758 67.9061C382.492 67.9061 382.172 67.7995 381.799 67.5863C380.786 66.8934 380.839 65.9873 380.893 65.0279C381.052 60.6573 382.705 56.8197 384.25 53.0887C385.849 49.1445 397.735 28.6773 399.814 24.9996C400.827 23.1341 401.999 21.3219 403.225 19.6163C403.918 18.7102 405.411 16.0452 406.903 16.1518C407.862 16.2584 407.702 17.1645 407.223 18.2305C406.69 19.4564 405.73 20.7889 405.517 21.0554C401.04 26.8651 388.088 50.3171 385.53 57.406C384.677 59.7512 383.451 62.1497 382.971 64.7081C382.865 65.1878 382.918 65.5076 383.078 65.6675C383.184 65.7741 383.291 65.8807 383.558 65.8807C383.717 65.8807 383.931 65.7741 384.25 65.6675C385.05 65.2944 385.636 64.5482 386.223 63.9086C386.489 63.5888 386.702 63.3223 386.969 63.0558C387.502 62.5228 387.981 61.9898 388.461 61.4568C389.047 60.8172 389.634 60.1776 390.273 59.5913L390.433 59.4314C392.299 57.6192 394.218 55.7537 396.456 54.2613C396.936 53.9948 397.469 53.6217 398.108 53.6217C398.428 53.6217 398.748 53.7283 399.068 53.9948C399.974 54.6344 400.24 55.5405 399.814 56.873C399.174 58.9517 398.428 61.0304 397.735 62.9492L397.416 63.6954C396.883 65.2411 396.243 66.8401 396.083 68.599C395.976 69.6117 396.136 70.3579 396.616 70.8376C396.989 71.264 397.629 71.4772 398.482 71.4772C398.641 71.4772 398.855 71.4239 399.015 71.4239C400.933 71.264 402.426 70.4645 403.598 69.7183C405.624 68.4391 407.436 66.8934 409.035 65.1345C409.941 64.0685 410.687 62.8959 411.38 61.7766C411.86 60.9771 412.393 60.2309 412.926 59.4847C413.086 59.2182 413.565 58.7385 413.885 58.7385C413.992 58.7385 414.045 58.7918 414.098 58.8984ZM431.623 58.5786C431.73 58.6319 431.783 58.7918 431.783 59.005C431.783 59.538 430.93 59.9644 430.611 60.2309C429.385 61.2969 428.106 62.3096 426.773 63.269C424.108 65.1345 421.07 66.7335 417.659 67.5863C416.22 67.9594 414.674 68.2259 413.128 66.8401C411.529 65.4543 411.583 63.802 411.956 62.4695C413.288 57.6192 415.633 53.4085 418.885 49.8374C419.311 49.411 419.791 48.6648 420.697 49.411C421.656 50.1572 420.963 50.7435 420.697 51.2765C418.405 54.8476 416.166 58.4187 414.514 62.4162C414.088 63.4822 413.075 64.7081 414.301 65.934C415.58 67.2132 417.286 66.6802 418.565 66.3604C421.283 65.7208 423.628 64.3883 425.707 62.8426C426.4 62.3629 430.984 58.0456 431.623 58.5786ZM422.989 46.8526C422.243 46.9592 421.71 46.6394 421.443 45.7333C421.123 44.3475 421.816 43.8145 423.042 43.7612C423.895 43.6546 424.588 44.0277 424.908 45.147C424.961 46.3196 424.161 46.746 422.989 46.8526Z" fill="black"/>
</svg>
